<?xml version="1.0" encoding="utf-8"?>
<svg version="1.1" id="_x5F_" xmlns="http://www.w3.org/2000/svg" x="0px" y="0px" viewBox="0 0 155.392 127.086" style="enable-background:new 0 0 450 450;" xmlns:bx="https://boxy-svg.com" width="155.392px" height="127.086px"><defs><bx:export><bx:file format="svg"/></bx:export></defs><g id="_x35_" transform="matrix(1, 0, 0, 1, -173.228836, -16.200998)"><g><g><path style="fill:#7C7A6B;" d="M261.753,73.451c-8.412-0.117-15.326,6.607-15.443,15.019 c-0.117,8.412,6.607,15.326,15.019,15.443c8.412,0.117,15.326-6.607,15.443-15.019C276.889,80.482,270.165,73.568,261.753,73.451 z M261.405,98.392c-5.363-0.075-9.65-4.483-9.575-9.846c0.075-5.363,4.483-9.65,9.846-9.575c5.363,0.075,9.65,4.483,9.575,9.846 S266.768,98.467,261.405,98.392z"/></g><g><path style="fill:#3D3231;" d="M261.598,84.553c-2.28-0.032-4.155,1.791-4.187,4.072c-0.032,2.281,1.791,4.155,4.072,4.187 c2.28,0.032,4.155-1.791,4.187-4.072C265.702,86.459,263.879,84.585,261.598,84.553z"/></g></g><g><g><path style="fill:#7C7A6B;" d="M192.559,73.369c-8.412-0.117-15.326,6.607-15.443,15.019 c-0.117,8.412,6.607,15.326,15.019,15.443c8.412,0.117,15.326-6.607,15.443-15.019C207.694,80.4,200.97,73.486,192.559,73.369z M192.211,98.311c-5.363-0.075-9.65-4.483-9.575-9.846c0.075-5.363,4.483-9.65,9.846-9.575c5.363,0.075,9.65,4.483,9.575,9.846 C201.982,94.098,197.574,98.385,192.211,98.311z"/></g><g><path style="fill:#3D3231;" d="M192.455,80.8c-4.308-0.06-7.849,3.384-7.909,7.692c-0.06,4.308,3.384,7.849,7.691,7.909 c4.308,0.06,7.849-3.384,7.909-7.691C200.207,84.401,196.763,80.86,192.455,80.8z"/></g></g><g><path style="fill:#9089EA;" d="M273.661,76.518c-5.736-7.912-19.759-7.004-25.12,0.459c-0.002,0.002,0.001,0.015,0.006,0.036 c0.363,1.571,1.753,2.694,3.361,2.81l8.227,1.581L273.661,76.518z"/></g><g><path style="fill:#564672;" d="M262.069,90.277L262.069,90.277c0.997-0.336,1.532-1.416,1.196-2.412l-16.548-49.105 c-0.336-0.996-1.416-1.532-2.412-1.196l0,0c-0.997,0.336-1.532,1.416-1.196,2.412l16.548,49.105 C259.993,90.077,261.073,90.612,262.069,90.277z"/></g><g><path style="fill:#7565C2;" d="M257.118,56.305l-11.507-19.346l-2.091-0.029c-1.296-0.018-2.164,1.311-1.647,2.499 c13.457,30.93-8.932,48.468-8.932,48.468l-8.384-0.117c-0.183-0.003-0.365-0.013-0.544-0.032 c-3.775-0.394-5.984-4.497-4.537-8.006l5.132-12.451c0.898-2.178-0.683-4.576-3.039-4.608l-25.024-0.349 c-11.507-0.16-22.171,4.211-22.332,15.718l-0.073,5.233c-0.031,2.215,1.483,4.152,3.639,4.658l36.267,8.51l15.866,0.221 c5.912,0.082,8.658-4.149,11.506-8.153l15.689-19.864C259.359,65.246,258.96,60.54,257.118,56.305z"/></g><g><path style="fill:#564672;" d="M232.939,90.103c-0.01,0-0.02,0-0.029,0l0.012-0.883c0.29,0.029,0.598-0.096,0.835-0.281 c0.232-0.182,23.021-18.569,9.33-50.038l0.809-0.352c13.977,32.123-9.356,50.899-9.594,51.084 C233.914,89.937,233.432,90.103,232.939,90.103z"/></g><g><path style="fill:#564672;" d="M232.941,87.896l-8.384-0.117c-0.183-0.003-0.365-0.013-0.544-0.032 c-3.647-0.38-5.822-4.223-4.661-7.647l-2.441,5.522c-1.089,2.464,0.691,5.24,3.385,5.277l5.702,0.079 C228.652,91.016,231.189,89.889,232.941,87.896L232.941,87.896z"/></g><g><path style="fill:#623DB8;" d="M179.391,76.896c-0.247,0.949-0.388,1.932-0.391,2.944c-0.009,2.531,2.083,4.726,4.964,5.31 l21.033,4.265c4.254,0.863,8.314-1.503,9.145-4.968c0.371-1.546,0.731-3.094,1.291-4.583l0.922-2.452L179.391,76.896z"/></g><g><path style="fill:#3D3231;" d="M220.62,57.858l-19.722-0.275l-3.619,6.364l26.458,0.369c0.885,0.012,1.613-0.696,1.626-1.581 C225.4,60.078,223.277,57.895,220.62,57.858z"/></g><g><g><path style="fill:#3D3231;" d="M219.433,69.386L219.433,69.386c0.56,0.008,1.021-0.44,1.029-1l0.016-1.177 c0.008-0.56-0.44-1.021-1-1.029l0,0c-0.56-0.008-1.021,0.44-1.029,1l-0.016,1.177C218.425,68.918,218.872,69.379,219.433,69.386z "/></g><g><path style="fill:#3D3231;" d="M214.913,69.323L214.913,69.323c0.56,0.008,1.021-0.44,1.029-1.001l0.016-1.177 c0.008-0.56-0.44-1.021-1.001-1.029l0,0c-0.56-0.008-1.021,0.44-1.029,1.001l-0.016,1.177 C213.905,68.855,214.353,69.316,214.913,69.323z"/></g><g><path style="fill:#3D3231;" d="M210.601,69.263L210.601,69.263c0.56,0.008,1.021-0.44,1.029-1l0.016-1.177 c0.008-0.56-0.44-1.021-1.001-1.029l0,0c-0.56-0.008-1.021,0.44-1.029,1l-0.016,1.177 C209.593,68.795,210.041,69.256,210.601,69.263z"/></g></g><g><path style="fill:#3D3231;" d="M241.63,23.269L241.63,23.269c1.186,0.236,2.339-0.535,2.574-1.721l0.551-2.773 c0.236-1.186-0.535-2.339-1.721-2.574l0,0L241.63,23.269z"/></g><g><path style="fill:#3D3231;" d="M245.61,39.196c-0.028,0-0.058-0.003-0.087-0.009c-0.238-0.048-0.393-0.28-0.346-0.52l1.806-9.005 c0.085-0.423,0.172-0.86,0.122-1.265c-0.041-0.321-0.174-0.651-0.303-0.969l-2.995-7.435c-0.091-0.226,0.019-0.483,0.244-0.574 c0.226-0.093,0.483,0.018,0.574,0.244l2.995,7.435c0.143,0.354,0.305,0.754,0.359,1.191c0.068,0.547-0.038,1.079-0.132,1.547 l-1.806,9.005C246.001,39.051,245.816,39.196,245.61,39.196z"/></g><g><path style="fill:#9089EA;" d="M254.679,35.483c-0.341-0.02-4.215-0.085-4.564-0.09c-6.29-0.088-11.426,2.43-11.471,5.624 c-0.044,3.194,5.019,5.854,11.309,5.942c0.35,0.005,0.694-0.001,1.036-0.012L254.679,35.483z"/></g><g><path style="fill:#3D3231;" d="M237.709,42.738l6.652-0.618c1.139-0.106,1.977-1.115,1.871-2.254l0,0 c-0.106-1.139-1.115-1.976-2.254-1.871l-6.652,0.618c-1.139,0.106-1.976,1.115-1.871,2.254l0,0 C235.561,42.006,236.57,42.844,237.709,42.738z"/></g><g><path style="fill:#623DB8;" d="M180.467,60.506l16.747,0.233l3.575-6.309l-1.184-6.687c0.019-1.371-1.077-2.497-2.447-2.516 l-8.276-0.115c-6.547-0.091-11.928,5.142-12.019,11.688l0,0C176.835,58.818,178.449,60.478,180.467,60.506z"/></g><g><path style="fill:#7565C2;" d="M200.261,51.447l-0.656-3.704c0.019-1.371-1.076-2.497-2.447-2.516l-8.276-0.115 c-4.489-0.063-8.429,2.38-10.492,6.031L200.261,51.447z"/></g><g><path style="fill:#3D3231;" d="M198.728,42.254L198.728,42.254c2.041,0.028,3.792,1.462,4.223,3.457l1.396,6.469 c0.341,1.578-0.875,3.062-2.489,3.04l-3.022-0.042l-2.23-10.332C196.315,43.5,197.352,42.235,198.728,42.254z"/></g><g><polygon style="fill:#623DB8;" points="175.379,72.247 179.105,72.299 180.802,66.023 175.526,61.693 &#9;&#9;"/></g><g><rect x="173.3" y="61.677" transform="matrix(0.9999 0.0139 -0.0139 0.9999 0.9502 -2.424)" style="fill:#F54027;" width="2.152" height="10.556"/></g></g></svg>