<?xml version="1.0" encoding="utf-8"?>
<svg version="1.1" id="_x5F_" xmlns="http://www.w3.org/2000/svg" x="0px" y="0px" viewBox="0 0 151.349 77.408" style="enable-background:new 0 0 450 450;" xmlns:bx="https://boxy-svg.com" width="151.349px" height="77.408px"><defs><bx:export><bx:file format="svg"/></bx:export></defs><g id="_x31_" transform="matrix(1, 0, 0, 1, -12.750872, -38.194847)"><g><path style="fill:#333334;" d="M125.277,62.519c-10.824-0.238-19.792,8.343-20.03,19.167c-0.238,10.824,8.343,19.792,19.167,20.03 c10.824,0.238,19.792-8.343,20.03-19.167C144.683,71.726,136.102,62.758,125.277,62.519z M124.554,95.358 c-7.312-0.161-13.109-6.219-12.948-13.531c0.161-7.312,6.219-13.109,13.531-12.948c7.312,0.161,13.109,6.219,12.948,13.531 C137.925,89.722,131.866,95.519,124.554,95.358z"/></g><g><path style="fill:#333334;" d="M33.926,60.508c-11.44-0.252-20.918,8.818-21.17,20.257c-0.252,11.44,8.818,20.918,20.257,21.17 c11.44,0.252,20.918-8.818,21.17-20.257C54.435,70.238,45.366,60.759,33.926,60.508z M33.162,95.214 c-7.728-0.17-13.855-6.573-13.685-14.301c0.17-7.728,6.573-13.855,14.301-13.685c7.728,0.17,13.855,6.573,13.685,14.301 C47.293,89.257,40.89,95.384,33.162,95.214z"/></g><g><path style="fill:#CCAE8B;" d="M125.311,61.012c-7.015-0.155-13.311,3.152-17.265,8.35c0.513,0.409,1.054,0.786,1.613,1.143 c1.719,1.097,3.942,0.943,5.49-0.385c4.457-3.822,9.327-3.715,12.407-3.648c2.785,0.061,5.083-3.949,5.083-3.949 C130.362,61.615,127.901,61.069,125.311,61.012z"/></g><g><path style="fill:#B8A186;" d="M33.695,70.982c-5.655-0.125-10.34,4.359-10.465,10.014c-0.125,5.655,4.359,10.34,10.014,10.465 c5.655,0.125,10.34-4.359,10.465-10.014C43.834,75.792,39.35,71.106,33.695,70.982z M28.72,74.369 c0.036-0.519,0.486-0.911,1.005-0.875c0.519,0.036,0.911,0.486,0.875,1.005l-0.163,2.351c-0.036,0.519-0.486,0.911-1.005,0.875 c-0.519-0.036-0.911-0.486-0.875-1.005L28.72,74.369z M25.898,77.171c0.441-0.276,1.023-0.142,1.299,0.299l1.25,1.997 c0.276,0.441,0.142,1.023-0.299,1.299c-0.441,0.276-1.023,0.142-1.299-0.299l-1.25-1.997 C25.323,78.028,25.457,77.447,25.898,77.171z M25.485,83.621c-0.483-0.195-0.716-0.744-0.522-1.227 c0.195-0.483,0.744-0.716,1.227-0.522l2.185,0.881c0.483,0.195,0.716,0.744,0.522,1.226c-0.195,0.483-0.744,0.716-1.227,0.522 L25.485,83.621z M30.707,87.285l-2.286,0.572c-0.505,0.126-1.017-0.181-1.143-0.686c-0.126-0.505,0.181-1.017,0.686-1.143 l2.286-0.572c0.505-0.126,1.017,0.181,1.143,0.686C31.519,86.647,31.212,87.158,30.707,87.285z M34.799,87.751l-1.513,1.806 c-0.334,0.399-0.929,0.451-1.328,0.117c-0.399-0.334-0.451-0.929-0.117-1.328l1.513-1.806c0.334-0.399,0.929-0.451,1.328-0.117 C35.081,86.757,35.133,87.352,34.799,87.751z M35.099,74.096l-1.513,1.806c-0.334,0.399-0.929,0.451-1.328,0.117 c-0.399-0.334-0.451-0.929-0.117-1.328l1.513-1.806c0.334-0.399,0.929-0.451,1.328-0.117 C35.381,73.103,35.434,73.697,35.099,74.096z M35.548,76.3c-0.126-0.505,0.181-1.017,0.686-1.143l2.286-0.572 c0.505-0.126,1.017,0.181,1.143,0.686c0.126,0.505-0.181,1.017-0.686,1.143l-2.286,0.572C36.186,77.112,35.674,76.805,35.548,76.3 z M38.22,88.073c-0.036,0.519-0.486,0.911-1.005,0.875c-0.519-0.036-0.911-0.486-0.875-1.005l0.163-2.351 c0.036-0.519,0.486-0.911,1.005-0.875c0.519,0.036,0.911,0.486,0.875,1.005L38.22,88.073z M41.042,85.271 c-0.441,0.276-1.023,0.142-1.299-0.299l-1.25-1.997c-0.276-0.441-0.142-1.023,0.299-1.299c0.441-0.276,1.023-0.142,1.299,0.299 l1.25,1.997C41.617,84.414,41.483,84.995,41.042,85.271z M40.75,80.569l-2.185-0.881c-0.483-0.194-0.716-0.744-0.522-1.227 c0.195-0.483,0.744-0.716,1.227-0.522l2.185,0.881c0.483,0.195,0.716,0.744,0.522,1.227C41.782,80.53,41.233,80.763,40.75,80.569z "/></g><g><path style="fill:#B8A186;" d="M125.2,71.882c-5.655-0.124-10.34,4.359-10.465,10.014c-0.125,5.655,4.359,10.34,10.014,10.465 c5.655,0.124,10.34-4.359,10.465-10.014S130.855,72.006,125.2,71.882z M120.224,75.269c0.036-0.519,0.486-0.911,1.005-0.875 c0.519,0.036,0.911,0.486,0.875,1.005l-0.163,2.35c-0.036,0.519-0.486,0.911-1.005,0.875c-0.519-0.036-0.911-0.486-0.875-1.005 L120.224,75.269z M117.403,78.071c0.441-0.276,1.023-0.142,1.299,0.299l1.25,1.997c0.276,0.441,0.142,1.023-0.299,1.299 c-0.441,0.276-1.023,0.142-1.299-0.299l-1.25-1.997C116.828,78.928,116.961,78.347,117.403,78.071z M116.99,84.521 c-0.483-0.195-0.716-0.744-0.522-1.227c0.195-0.483,0.744-0.716,1.227-0.522l2.185,0.881c0.483,0.195,0.716,0.744,0.522,1.227 c-0.195,0.483-0.744,0.716-1.227,0.522L116.99,84.521z M122.211,88.184l-2.286,0.572c-0.505,0.126-1.017-0.181-1.143-0.686 c-0.126-0.505,0.181-1.017,0.686-1.143l2.286-0.572c0.505-0.126,1.017,0.181,1.143,0.686 C123.023,87.546,122.716,88.058,122.211,88.184z M126.303,88.65l-1.513,1.806c-0.334,0.399-0.929,0.451-1.328,0.117 s-0.451-0.929-0.117-1.328l1.513-1.806c0.334-0.399,0.929-0.451,1.328-0.117C126.585,87.657,126.637,88.252,126.303,88.65z M126.604,74.996l-1.513,1.806c-0.334,0.399-0.929,0.451-1.328,0.117c-0.399-0.334-0.451-0.929-0.117-1.328l1.513-1.806 c0.334-0.399,0.929-0.451,1.328-0.117C126.886,74.002,126.938,74.597,126.604,74.996z M127.052,77.2 c-0.126-0.505,0.181-1.017,0.686-1.143l2.286-0.572c0.505-0.126,1.017,0.181,1.143,0.686c0.126,0.505-0.181,1.017-0.686,1.143 l-2.286,0.572C127.69,78.012,127.178,77.705,127.052,77.2z M129.725,88.973c-0.036,0.519-0.486,0.911-1.005,0.875 c-0.519-0.036-0.911-0.486-0.875-1.005l0.163-2.351c0.036-0.519,0.486-0.911,1.005-0.875c0.519,0.036,0.911,0.486,0.875,1.005 L129.725,88.973z M132.546,86.171c-0.441,0.276-1.023,0.142-1.299-0.299l-1.25-1.997c-0.276-0.441-0.142-1.023,0.299-1.299 c0.441-0.276,1.023-0.142,1.299,0.299l1.25,1.997C133.121,85.313,132.988,85.895,132.546,86.171z M132.254,81.469l-2.185-0.881 c-0.483-0.195-0.716-0.744-0.522-1.227c0.195-0.483,0.744-0.716,1.227-0.522l2.185,0.881c0.483,0.195,0.716,0.744,0.522,1.227 C133.286,81.43,132.737,81.663,132.254,81.469z"/></g><g><path style="fill:#271B2C;" d="M74.488,68.928c1.987,7.749,8.883,13.878,16.598,14.048c7.714,0.17,8.314-5.883,10.36-13.618 c3.011-11.382-5.159-16.975-12.874-17.144C80.858,52.044,71.168,55.982,74.488,68.928z"/></g><g><path style="fill:#EBD8B2;" d="M71.412,91.315l15.825,0.349c4.467,0.098,8.46-2.771,9.792-7.036l2.589-8.289l-21.404-2.786 c0,0-8.859-8.688-6.438-15.876c6.371-15.333,33.864-5.419,33.864-5.419s2.386-1.142,2.465-4.725 c0.064-2.921-5.927-9.086-17.046-9.331C76.831,37.888,67.85,48.02,67.85,48.02l-9.901-0.787c-2.079-0.165-3.936-1.365-4.94-3.193 l-0.701-1.276l-18.863,0.39l-9.33,4.131c8.915,1.453,17.991,4.097,27.335,8.709C58.783,63.573,65.321,76.062,71.412,91.315z"/></g><g><path style="fill:#5F4B55;" d="M81.605,73.994l-0.386,17.536l6.607,0.146c4.118,0.091,7.799-2.554,9.027-6.486l2.764-8.851 L81.605,73.994z"/></g><g><path style="fill:#CCAE8B;" d="M71.372,51.001c-0.794,0.705-1.785-1.425-1.345-2.355c1.474-3.115,4.356-5.631,7.616-7.554 c-6.211,2.898-9.792,6.927-9.792,6.927l-9.901-0.787c-2.079-0.165-3.936-1.365-4.94-3.193l-0.701-1.276l-0.073,0.001 c-0.479,7.562,9.623,7.232,14.674,7.947c0.755,0.107,1.197,0.549,1.26,1.317c0.276,3.357,1.259,6.103,2.422,9.181 c0.473,1.254-1.428,1.836-2.074,0.821c-4.897-7.686-15.597-12.11-24.058-14.578c-4.889-1.426-9.279-2.78-14.232-2.874l-6.11,2.706 c8.549,1.394,17.25,3.902,26.19,8.172c7.643,2.386,12.878,6.573,18.154,11.514c0.198,0.185,3.435,2.839,2.915,4.126 c-0.851,2.108-3.278,3.128-5.422,3.166c-0.617,0.011-1.438-0.076-2.342-0.253c0.233,0.45,0.461,0.929,0.692,1.388 c3.931,0.321,7.884,1.099,11.116,3.412c3.669,2.625,5.288,8.152,5.238,12.708l0.607,0.013c0.069-6.216,3.418-17.137-2.518-17.909 l-0.533-0.069c0,0-8.859-8.688-6.438-15.876c6.371-15.333,33.864-5.419,33.864-5.419s3.489,1.869,2.465-4.725 C107.823,45.721,85.292,38.644,71.372,51.001z"/></g><g><path style="fill:#271B2C;" d="M71.372,51.001c-0.97,0.433-1.785-1.425-1.345-2.355c1.474-3.115,4.356-5.631,7.616-7.554 c-6.211,2.898-9.792,6.927-9.792,6.927l-9.901-0.787c-2.079-0.165-3.936-1.365-4.94-3.193l-0.701-1.276l-0.073,0.001 c-0.479,7.562,9.623,7.232,14.674,7.947c0.755,0.107,1.197,0.549,1.26,1.317c0.276,3.357,0.397,4.573,1.559,7.651 c0.474,1.254-12.438-13.124-39.502-15.101l-6.11,2.706c8.549,1.394,17.25,3.902,26.19,8.172 c8.122,3.711,19.672,14.95,19.439,16.318c-0.217,1.272-1.648,2.449-3.792,2.487c-0.617,0.011-1.438-0.076-2.342-0.253 c0.233,0.45,0.461,0.929,0.692,1.388c3.931,0.321,7.884,1.099,11.116,3.412c3.669,2.625,5.288,8.152,5.238,12.708l0.607,0.013 c0.069-6.216,3.418-17.137-2.518-17.909l-0.533-0.069c0,0-8.859-8.688-6.438-15.876c6.371-15.333,33.864-5.419,33.864-5.419 S86.361,44.308,71.372,51.001z"/></g><g><path style="fill:#333334;" d="M29.222,81.128c-0.052,2.355,1.815,4.306,4.17,4.358c2.355,0.052,4.306-1.815,4.358-4.17 c0.052-2.355-1.815-4.306-4.17-4.358C31.225,76.905,29.274,78.772,29.222,81.128z"/></g><g><polygon style="fill:#8E8175;" points="81.871,82.287 36.137,87.23 29.901,86.398 29.289,82.315 35.501,80.527 80.536,75.337 &#9;&#9;&#10;&#9;&#9;&#9;"/></g><g><g><path style="fill:#8E8175;" d="M84.94,93.149c-0.566,0.029-1.149-0.036-1.734-0.239c-0.786-0.273-1.203-1.132-0.93-1.919 c0.273-0.786,1.133-1.204,1.919-0.93c0.902,0.312,2.158-0.356,3.264-1.009l6.948-4.1c0.751-0.443,1.46-0.861,2.007-1.388 c0.227-0.221,5.536-6.578,5.727-6.787c0.791-0.863,1.686-1.841,1.796-2.653c0.119-0.881-0.378-1.898-0.99-3.039l-4.002-7.458 c-0.394-0.733-0.118-1.648,0.615-2.042c0.733-0.393,1.648-0.118,2.042,0.615l4.003,7.46c0.667,1.244,1.58,2.947,1.321,4.869 c-0.236,1.748-1.525,3.156-2.56,4.286c-0.176,0.192-5.528,6.603-5.858,6.921c-0.802,0.774-1.74,1.327-2.568,1.815l-6.948,4.099 C88.083,92.185,86.592,93.065,84.94,93.149z"/></g></g><g><g><path style="fill:#8E8175;" d="M82.063,91.443c-0.238-0.005-0.477-0.066-0.699-0.19c-0.728-0.406-0.989-1.324-0.584-2.051 c0.383-0.688,0.413-1.709,0.44-2.61c0.045-1.541-0.174-9.208-0.683-11.255c-0.239-0.829-2.82-3.661-4.059-5.022 c-1.975-2.168-2.497-2.787-2.687-3.412c-0.465-1.541-0.136-3.143,0.857-4.181c0.577-0.601,1.531-0.622,2.132-0.046 c0.602,0.577,0.622,1.531,0.046,2.132c-0.211,0.22-0.28,0.676-0.177,1.115c0.267,0.396,1.255,1.479,2.057,2.36 c2.646,2.904,4.406,4.913,4.757,6.326c0.655,2.634,0.809,10.764,0.771,12.07c-0.035,1.185-0.078,2.659-0.819,3.99 C83.133,91.175,82.604,91.455,82.063,91.443z"/></g></g><g><rect x="118.144" y="52.665" transform="matrix(0.9503 -0.3114 0.3114 0.9503 -14.8482 40.6388)" style="fill:#333334;" width="3.393" height="28.306"/></g><g><path style="fill:#5F4B55;" d="M109.887,55.486c3.743-0.121,7.03-0.518,10.286-1.669c0.596-0.21,1.009-0.791,1.005-1.423 c-0.021-3.879-1.099-7.663-2.552-11.467c-0.257-0.674-0.973-1.074-1.683-0.949c-4.193,0.738-7.175,1.641-9.416,3.003 c-1.179,0.347-1.897,1.598-1.658,2.889l1.78,7.671C107.859,54.674,108.808,55.521,109.887,55.486z"/></g><g><path style="fill:#A6B0A7;" d="M118.626,40.927c-0.257-0.674-0.973-1.074-1.683-0.949c-0.567,0.1-1.108,0.203-1.632,0.31 l3.749,13.855c0.371-0.111,0.745-0.196,1.114-0.327c0.596-0.21,1.009-0.791,1.005-1.423 C121.157,48.515,120.079,44.732,118.626,40.927z"/></g><g><rect x="115.021" y="46.585" transform="matrix(0.9503 -0.3114 0.3114 0.9503 -13.0607 39.6734)" style="fill:#E1DAC8;" width="5.381" height="28.306"/></g><g><rect x="116.809" y="46.585" transform="matrix(0.9503 -0.3114 0.3114 0.9503 -13.0608 39.6744)" style="fill:#B8A186;" width="1.807" height="28.306"/></g><g><g><rect x="83.595" y="55.568" transform="matrix(0.8973 -0.4414 0.4414 0.8973 -18.4686 43.6932)" style="fill:#5F4B55;" width="2.139" height="11.938"/></g><g><rect x="80.043" y="57.3" transform="matrix(0.8973 -0.4414 0.4414 0.8973 -19.5944 42.315)" style="fill:#5F4B55;" width="2.202" height="11.938"/></g><g><polygon style="fill:#5F4B55;" points="89.093,65.625 87.174,56.171 84.975,57.253 &#9;&#9;&#9;"/></g><g><polygon style="fill:#5F4B55;" points="81.651,69.286 75.334,61.995 77.533,60.914 &#9;&#9;&#9;"/></g><g><path style="fill:#8E8175;" d="M75.883,60.769l10.039-4.848c0.852-0.412,1.21-1.436,0.798-2.289l-0.968-2.005 c-0.412-0.852-1.436-1.21-2.289-0.798l-10.039,4.848c-0.852,0.412-1.21,1.436-0.798,2.289l0.968,2.005 C74.006,60.824,75.031,61.181,75.883,60.769z"/></g></g><g><g><rect x="94.461" y="55.807" transform="matrix(-0.877 -0.4805 0.4805 -0.877 149.6326 161.8531)" style="fill:#5F4B55;" width="2.139" height="11.938"/></g><g><rect x="97.871" y="57.692" transform="matrix(-0.877 -0.4805 0.4805 -0.877 155.1813 167.0479)" style="fill:#5F4B55;" width="2.202" height="11.938"/></g><g><polygon style="fill:#5F4B55;" points="90.927,65.665 93.261,56.305 95.41,57.482 &#9;&#9;&#9;"/></g><g><polygon style="fill:#5F4B55;" points="98.2,69.65 104.832,62.645 102.683,61.467 &#9;&#9;&#9;"/></g><g><path style="fill:#8E8175;" d="M104.338,61.396l-9.816-5.285c-0.833-0.449-1.145-1.488-0.697-2.322l1.056-1.961 c0.449-0.833,1.488-1.145,2.322-0.697l9.816,5.285c0.834,0.449,1.145,1.488,0.697,2.322l-1.056,1.961 C106.211,61.533,105.171,61.845,104.338,61.396z"/></g></g><g><path style="fill:#8E8175;" d="M86.254,73.416c0.065-2.936,2.497-5.264,5.433-5.199c2.936,0.065,5.264,2.497,5.199,5.434 c-0.065,2.936-2.497,5.264-5.434,5.199C88.517,78.785,86.189,76.352,86.254,73.416z"/></g><g><path style="fill:#271B2C;" d="M88.077,73.456c0.042-1.929,1.641-3.459,3.57-3.416c1.929,0.042,3.459,1.641,3.416,3.57 c-0.043,1.929-1.641,3.459-3.57,3.416C89.564,76.984,88.034,75.385,88.077,73.456z"/></g><g><path style="fill:#333334;" d="M120.582,82.024c-0.052,2.355,1.815,4.306,4.17,4.358c2.355,0.052,4.306-1.815,4.358-4.17 c0.052-2.355-1.815-4.306-4.17-4.358C122.585,77.802,120.634,79.669,120.582,82.024z"/></g><g><path style="fill:#272023;" d="M108.642,47.689c-0.045,2.039,1.572,3.728,3.611,3.773c2.039,0.045,3.728-1.572,3.773-3.611 c0.045-2.039-1.572-3.728-3.611-3.773S108.687,45.65,108.642,47.689z"/></g><g><path style="fill:#CABBB3;" d="M106.996,49.093c-0.027,1.238,0.955,2.264,2.193,2.292c1.239,0.027,2.265-0.955,2.292-2.193 c0.027-1.238-0.955-2.264-2.193-2.292C108.049,46.873,107.023,47.855,106.996,49.093z"/></g></g></svg>